<mxfile host="app.diagrams.net" modified="2020-12-10T09:59:46.802Z" agent="5.0 (Windows NT 10.0; Win64; x64) AppleWebKit/537.36 (KHTML, like Gecko) Chrome/87.0.4280.88 Safari/537.36 Edg/87.0.664.57" etag="8HObP3VnvdFR7a7kcgjo" version="14.0.0" type="github">
  <diagram id="SOjFdy0Izhd8uLRKIr79" name="Page-1">
    <mxGraphModel dx="1038" dy="580" grid="1" gridSize="10" guides="1" tooltips="1" connect="1" arrows="1" fold="1" page="1" pageScale="1" pageWidth="827" pageHeight="1169" math="0" shadow="0">
      <root>
        <mxCell id="0" />
        <mxCell id="1" parent="0" />
        <mxCell id="YENUr4DXyd0G2JzPTikZ-7" value="&lt;font style=&quot;font-size: 10px&quot;&gt;givenName&lt;/font&gt;" style="ellipse;whiteSpace=wrap;html=1;align=center;" parent="1" vertex="1">
          <mxGeometry x="200" y="190" width="85" height="25" as="geometry" />
        </mxCell>
        <mxCell id="YENUr4DXyd0G2JzPTikZ-8" value="&lt;font style=&quot;font-size: 10px&quot;&gt;familyName&lt;/font&gt;" style="ellipse;whiteSpace=wrap;html=1;align=center;" parent="1" vertex="1">
          <mxGeometry x="200" y="220" width="85" height="25" as="geometry" />
        </mxCell>
        <mxCell id="YENUr4DXyd0G2JzPTikZ-9" value="&lt;font style=&quot;font-size: 10px&quot;&gt;contact&lt;/font&gt;" style="ellipse;whiteSpace=wrap;html=1;align=center;" parent="1" vertex="1">
          <mxGeometry x="200" y="250" width="85" height="25" as="geometry" />
        </mxCell>
        <mxCell id="YENUr4DXyd0G2JzPTikZ-10" value="&lt;font style=&quot;font-size: 10px&quot;&gt;address&lt;/font&gt;" style="ellipse;whiteSpace=wrap;html=1;align=center;" parent="1" vertex="1">
          <mxGeometry x="200" y="280" width="85" height="25" as="geometry" />
        </mxCell>
        <mxCell id="YENUr4DXyd0G2JzPTikZ-11" value="&lt;font style=&quot;font-size: 10px&quot;&gt;username&lt;/font&gt;" style="ellipse;whiteSpace=wrap;html=1;align=center;" parent="1" vertex="1">
          <mxGeometry x="200" y="310" width="85" height="25" as="geometry" />
        </mxCell>
        <mxCell id="YENUr4DXyd0G2JzPTikZ-12" value="&lt;font style=&quot;font-size: 10px&quot;&gt;password&lt;/font&gt;" style="ellipse;whiteSpace=wrap;html=1;align=center;fillColor=#e1d5e7;strokeColor=#9673a6;" parent="1" vertex="1">
          <mxGeometry x="200" y="340" width="85" height="25" as="geometry" />
        </mxCell>
        <mxCell id="YENUr4DXyd0G2JzPTikZ-13" value="&lt;font style=&quot;font-size: 10px&quot;&gt;profilePhoto&lt;/font&gt;" style="ellipse;whiteSpace=wrap;html=1;align=center;fontStyle=1;fillColor=#e1d5e7;strokeColor=#9673a6;" parent="1" vertex="1">
          <mxGeometry x="200" y="370" width="85" height="25" as="geometry" />
        </mxCell>
        <mxCell id="YENUr4DXyd0G2JzPTikZ-14" value="&lt;font style=&quot;font-size: 10px&quot;&gt;birthDate&lt;/font&gt;" style="ellipse;whiteSpace=wrap;html=1;align=center;fillColor=#e1d5e7;strokeColor=#9673a6;" parent="1" vertex="1">
          <mxGeometry x="200" y="400" width="85" height="25" as="geometry" />
        </mxCell>
        <mxCell id="YENUr4DXyd0G2JzPTikZ-15" value="&lt;font style=&quot;font-size: 10px&quot;&gt;createdOn&lt;/font&gt;" style="ellipse;whiteSpace=wrap;html=1;align=center;fillColor=#e1d5e7;strokeColor=#9673a6;" parent="1" vertex="1">
          <mxGeometry x="200" y="430" width="85" height="25" as="geometry" />
        </mxCell>
        <mxCell id="YENUr4DXyd0G2JzPTikZ-16" value="&lt;font style=&quot;font-size: 10px&quot;&gt;rateSum&lt;/font&gt;" style="ellipse;whiteSpace=wrap;html=1;align=center;fillColor=#e1d5e7;strokeColor=#9673a6;" parent="1" vertex="1">
          <mxGeometry x="200" y="460" width="85" height="25" as="geometry" />
        </mxCell>
        <mxCell id="YENUr4DXyd0G2JzPTikZ-17" value="&lt;font style=&quot;font-size: 10px&quot;&gt;numberOfRates&lt;/font&gt;" style="ellipse;whiteSpace=wrap;html=1;align=center;fillColor=#e1d5e7;strokeColor=#9673a6;" parent="1" vertex="1">
          <mxGeometry x="200" y="490" width="85" height="25" as="geometry" />
        </mxCell>
        <mxCell id="9L8n2mt8I-r6MpE7Kl4a-3" value="id" style="ellipse;whiteSpace=wrap;html=1;align=center;fontStyle=4;" vertex="1" parent="1">
          <mxGeometry x="200" y="160" width="85" height="25" as="geometry" />
        </mxCell>
        <mxCell id="9L8n2mt8I-r6MpE7Kl4a-6" style="edgeStyle=orthogonalEdgeStyle;rounded=0;orthogonalLoop=1;jettySize=auto;html=1;exitX=0;exitY=0.5;exitDx=0;exitDy=0;entryX=1;entryY=0.5;entryDx=0;entryDy=0;endArrow=none;endFill=0;" edge="1" parent="1" source="YENUr4DXyd0G2JzPTikZ-1" target="9L8n2mt8I-r6MpE7Kl4a-3">
          <mxGeometry relative="1" as="geometry">
            <mxPoint x="320" y="170" as="targetPoint" />
          </mxGeometry>
        </mxCell>
        <mxCell id="9L8n2mt8I-r6MpE7Kl4a-7" style="edgeStyle=orthogonalEdgeStyle;rounded=0;orthogonalLoop=1;jettySize=auto;html=1;exitX=0;exitY=0.5;exitDx=0;exitDy=0;entryX=1;entryY=0.5;entryDx=0;entryDy=0;endArrow=none;endFill=0;" edge="1" parent="1" source="YENUr4DXyd0G2JzPTikZ-1" target="YENUr4DXyd0G2JzPTikZ-7">
          <mxGeometry relative="1" as="geometry" />
        </mxCell>
        <mxCell id="9L8n2mt8I-r6MpE7Kl4a-8" style="edgeStyle=orthogonalEdgeStyle;rounded=0;orthogonalLoop=1;jettySize=auto;html=1;exitX=0;exitY=0.5;exitDx=0;exitDy=0;entryX=1;entryY=0.5;entryDx=0;entryDy=0;endArrow=none;endFill=0;" edge="1" parent="1" source="YENUr4DXyd0G2JzPTikZ-1" target="YENUr4DXyd0G2JzPTikZ-8">
          <mxGeometry relative="1" as="geometry" />
        </mxCell>
        <mxCell id="9L8n2mt8I-r6MpE7Kl4a-9" style="edgeStyle=orthogonalEdgeStyle;rounded=0;orthogonalLoop=1;jettySize=auto;html=1;exitX=0;exitY=0.5;exitDx=0;exitDy=0;entryX=1;entryY=0.5;entryDx=0;entryDy=0;endArrow=none;endFill=0;" edge="1" parent="1" source="YENUr4DXyd0G2JzPTikZ-1" target="YENUr4DXyd0G2JzPTikZ-9">
          <mxGeometry relative="1" as="geometry" />
        </mxCell>
        <mxCell id="9L8n2mt8I-r6MpE7Kl4a-10" style="edgeStyle=orthogonalEdgeStyle;rounded=0;orthogonalLoop=1;jettySize=auto;html=1;exitX=0;exitY=0.5;exitDx=0;exitDy=0;entryX=1;entryY=0.5;entryDx=0;entryDy=0;endArrow=none;endFill=0;" edge="1" parent="1" source="YENUr4DXyd0G2JzPTikZ-1" target="YENUr4DXyd0G2JzPTikZ-10">
          <mxGeometry relative="1" as="geometry" />
        </mxCell>
        <mxCell id="9L8n2mt8I-r6MpE7Kl4a-11" style="edgeStyle=orthogonalEdgeStyle;rounded=0;orthogonalLoop=1;jettySize=auto;html=1;exitX=0;exitY=0.5;exitDx=0;exitDy=0;entryX=1;entryY=0.5;entryDx=0;entryDy=0;endArrow=none;endFill=0;" edge="1" parent="1" source="YENUr4DXyd0G2JzPTikZ-1" target="YENUr4DXyd0G2JzPTikZ-11">
          <mxGeometry relative="1" as="geometry" />
        </mxCell>
        <mxCell id="9L8n2mt8I-r6MpE7Kl4a-12" style="edgeStyle=orthogonalEdgeStyle;rounded=0;orthogonalLoop=1;jettySize=auto;html=1;exitX=0;exitY=0.5;exitDx=0;exitDy=0;entryX=1;entryY=0.5;entryDx=0;entryDy=0;endArrow=none;endFill=0;" edge="1" parent="1" source="YENUr4DXyd0G2JzPTikZ-1" target="YENUr4DXyd0G2JzPTikZ-12">
          <mxGeometry relative="1" as="geometry" />
        </mxCell>
        <mxCell id="9L8n2mt8I-r6MpE7Kl4a-13" style="edgeStyle=orthogonalEdgeStyle;rounded=0;orthogonalLoop=1;jettySize=auto;html=1;exitX=0;exitY=0.5;exitDx=0;exitDy=0;entryX=1;entryY=0.5;entryDx=0;entryDy=0;endArrow=none;endFill=0;" edge="1" parent="1" source="YENUr4DXyd0G2JzPTikZ-1" target="YENUr4DXyd0G2JzPTikZ-13">
          <mxGeometry relative="1" as="geometry" />
        </mxCell>
        <mxCell id="9L8n2mt8I-r6MpE7Kl4a-14" style="edgeStyle=orthogonalEdgeStyle;rounded=0;orthogonalLoop=1;jettySize=auto;html=1;exitX=0;exitY=0.5;exitDx=0;exitDy=0;entryX=1;entryY=0.5;entryDx=0;entryDy=0;endArrow=none;endFill=0;" edge="1" parent="1" source="YENUr4DXyd0G2JzPTikZ-1" target="YENUr4DXyd0G2JzPTikZ-14">
          <mxGeometry relative="1" as="geometry" />
        </mxCell>
        <mxCell id="9L8n2mt8I-r6MpE7Kl4a-15" style="edgeStyle=orthogonalEdgeStyle;rounded=0;orthogonalLoop=1;jettySize=auto;html=1;exitX=0;exitY=0.5;exitDx=0;exitDy=0;entryX=1;entryY=0.5;entryDx=0;entryDy=0;endArrow=none;endFill=0;" edge="1" parent="1" source="YENUr4DXyd0G2JzPTikZ-1" target="YENUr4DXyd0G2JzPTikZ-15">
          <mxGeometry relative="1" as="geometry" />
        </mxCell>
        <mxCell id="9L8n2mt8I-r6MpE7Kl4a-16" style="edgeStyle=orthogonalEdgeStyle;rounded=0;orthogonalLoop=1;jettySize=auto;html=1;exitX=0;exitY=0.5;exitDx=0;exitDy=0;entryX=1;entryY=0.5;entryDx=0;entryDy=0;endArrow=none;endFill=0;" edge="1" parent="1" source="YENUr4DXyd0G2JzPTikZ-1" target="YENUr4DXyd0G2JzPTikZ-16">
          <mxGeometry relative="1" as="geometry" />
        </mxCell>
        <mxCell id="9L8n2mt8I-r6MpE7Kl4a-17" style="edgeStyle=orthogonalEdgeStyle;rounded=0;orthogonalLoop=1;jettySize=auto;html=1;exitX=0;exitY=0.5;exitDx=0;exitDy=0;entryX=1;entryY=0.5;entryDx=0;entryDy=0;endArrow=none;endFill=0;" edge="1" parent="1" source="YENUr4DXyd0G2JzPTikZ-1" target="YENUr4DXyd0G2JzPTikZ-17">
          <mxGeometry relative="1" as="geometry" />
        </mxCell>
        <mxCell id="YENUr4DXyd0G2JzPTikZ-1" value="User" style="whiteSpace=wrap;html=1;align=center;fillColor=#d5e8d4;strokeColor=#82b366;" parent="1" vertex="1">
          <mxGeometry x="351" y="280" width="100" height="40" as="geometry" />
        </mxCell>
        <mxCell id="9L8n2mt8I-r6MpE7Kl4a-18" value="&lt;font style=&quot;font-size: 10px&quot;&gt;type&lt;/font&gt;" style="ellipse;whiteSpace=wrap;html=1;align=center;fillColor=#e1d5e7;strokeColor=#9673a6;" vertex="1" parent="1">
          <mxGeometry x="340" y="590" width="85" height="25" as="geometry" />
        </mxCell>
        <mxCell id="9L8n2mt8I-r6MpE7Kl4a-19" value="&lt;font style=&quot;font-size: 10px&quot;&gt;description&lt;/font&gt;" style="ellipse;whiteSpace=wrap;html=1;align=center;fillColor=#e1d5e7;strokeColor=#9673a6;" vertex="1" parent="1">
          <mxGeometry x="340" y="620" width="85" height="25" as="geometry" />
        </mxCell>
        <mxCell id="9L8n2mt8I-r6MpE7Kl4a-20" value="&lt;font style=&quot;font-size: 10px&quot;&gt;url&lt;/font&gt;" style="ellipse;whiteSpace=wrap;html=1;align=center;fillColor=#e1d5e7;strokeColor=#9673a6;" vertex="1" parent="1">
          <mxGeometry x="340" y="650" width="85" height="25" as="geometry" />
        </mxCell>
        <mxCell id="9L8n2mt8I-r6MpE7Kl4a-21" value="&lt;font style=&quot;font-size: 10px&quot;&gt;publicId&lt;/font&gt;" style="ellipse;whiteSpace=wrap;html=1;align=center;fillColor=#e1d5e7;strokeColor=#9673a6;" vertex="1" parent="1">
          <mxGeometry x="340" y="680" width="85" height="25" as="geometry" />
        </mxCell>
        <mxCell id="9L8n2mt8I-r6MpE7Kl4a-22" value="&lt;font style=&quot;font-size: 10px&quot;&gt;createdOn&lt;/font&gt;" style="ellipse;whiteSpace=wrap;html=1;align=center;fillColor=#e1d5e7;strokeColor=#9673a6;" vertex="1" parent="1">
          <mxGeometry x="340" y="710" width="85" height="25" as="geometry" />
        </mxCell>
        <mxCell id="9L8n2mt8I-r6MpE7Kl4a-29" value="id" style="ellipse;whiteSpace=wrap;html=1;align=center;fontStyle=4;fillColor=#e1d5e7;strokeColor=#9673a6;" vertex="1" parent="1">
          <mxGeometry x="340" y="560" width="85" height="25" as="geometry" />
        </mxCell>
        <mxCell id="9L8n2mt8I-r6MpE7Kl4a-30" style="edgeStyle=orthogonalEdgeStyle;rounded=0;orthogonalLoop=1;jettySize=auto;html=1;exitX=0;exitY=0.5;exitDx=0;exitDy=0;entryX=1;entryY=0.5;entryDx=0;entryDy=0;endArrow=none;endFill=0;" edge="1" parent="1" source="9L8n2mt8I-r6MpE7Kl4a-42" target="9L8n2mt8I-r6MpE7Kl4a-29">
          <mxGeometry relative="1" as="geometry">
            <mxPoint x="460" y="570" as="targetPoint" />
          </mxGeometry>
        </mxCell>
        <mxCell id="9L8n2mt8I-r6MpE7Kl4a-31" style="edgeStyle=orthogonalEdgeStyle;rounded=0;orthogonalLoop=1;jettySize=auto;html=1;exitX=0;exitY=0.5;exitDx=0;exitDy=0;entryX=1;entryY=0.5;entryDx=0;entryDy=0;endArrow=none;endFill=0;" edge="1" parent="1" source="9L8n2mt8I-r6MpE7Kl4a-42" target="9L8n2mt8I-r6MpE7Kl4a-18">
          <mxGeometry relative="1" as="geometry" />
        </mxCell>
        <mxCell id="9L8n2mt8I-r6MpE7Kl4a-32" style="edgeStyle=orthogonalEdgeStyle;rounded=0;orthogonalLoop=1;jettySize=auto;html=1;exitX=0;exitY=0.5;exitDx=0;exitDy=0;entryX=1;entryY=0.5;entryDx=0;entryDy=0;endArrow=none;endFill=0;" edge="1" parent="1" source="9L8n2mt8I-r6MpE7Kl4a-42" target="9L8n2mt8I-r6MpE7Kl4a-19">
          <mxGeometry relative="1" as="geometry" />
        </mxCell>
        <mxCell id="9L8n2mt8I-r6MpE7Kl4a-33" style="edgeStyle=orthogonalEdgeStyle;rounded=0;orthogonalLoop=1;jettySize=auto;html=1;exitX=0;exitY=0.5;exitDx=0;exitDy=0;entryX=1;entryY=0.5;entryDx=0;entryDy=0;endArrow=none;endFill=0;" edge="1" parent="1" source="9L8n2mt8I-r6MpE7Kl4a-42" target="9L8n2mt8I-r6MpE7Kl4a-20">
          <mxGeometry relative="1" as="geometry" />
        </mxCell>
        <mxCell id="9L8n2mt8I-r6MpE7Kl4a-34" style="edgeStyle=orthogonalEdgeStyle;rounded=0;orthogonalLoop=1;jettySize=auto;html=1;exitX=0;exitY=0.5;exitDx=0;exitDy=0;entryX=1;entryY=0.5;entryDx=0;entryDy=0;endArrow=none;endFill=0;" edge="1" parent="1" source="9L8n2mt8I-r6MpE7Kl4a-42" target="9L8n2mt8I-r6MpE7Kl4a-21">
          <mxGeometry relative="1" as="geometry" />
        </mxCell>
        <mxCell id="9L8n2mt8I-r6MpE7Kl4a-35" style="edgeStyle=orthogonalEdgeStyle;rounded=0;orthogonalLoop=1;jettySize=auto;html=1;exitX=0;exitY=0.5;exitDx=0;exitDy=0;entryX=1;entryY=0.5;entryDx=0;entryDy=0;endArrow=none;endFill=0;" edge="1" parent="1" source="9L8n2mt8I-r6MpE7Kl4a-42" target="9L8n2mt8I-r6MpE7Kl4a-22">
          <mxGeometry relative="1" as="geometry" />
        </mxCell>
        <mxCell id="9L8n2mt8I-r6MpE7Kl4a-42" value="Media" style="whiteSpace=wrap;html=1;align=center;fillColor=#d5e8d4;strokeColor=#82b366;" vertex="1" parent="1">
          <mxGeometry x="491" y="627.5" width="100" height="40" as="geometry" />
        </mxCell>
        <mxCell id="9L8n2mt8I-r6MpE7Kl4a-43" value="id" style="ellipse;whiteSpace=wrap;html=1;align=center;fontStyle=4;fillColor=#e1d5e7;strokeColor=#9673a6;" vertex="1" parent="1">
          <mxGeometry x="200" y="160" width="85" height="25" as="geometry" />
        </mxCell>
        <mxCell id="9L8n2mt8I-r6MpE7Kl4a-44" value="&lt;font style=&quot;font-size: 10px&quot;&gt;givenName&lt;/font&gt;" style="ellipse;whiteSpace=wrap;html=1;align=center;fillColor=#e1d5e7;strokeColor=#9673a6;" vertex="1" parent="1">
          <mxGeometry x="200" y="190" width="85" height="25" as="geometry" />
        </mxCell>
        <mxCell id="9L8n2mt8I-r6MpE7Kl4a-45" value="&lt;font style=&quot;font-size: 10px&quot;&gt;familyName&lt;/font&gt;" style="ellipse;whiteSpace=wrap;html=1;align=center;fillColor=#e1d5e7;strokeColor=#9673a6;" vertex="1" parent="1">
          <mxGeometry x="200" y="220" width="85" height="25" as="geometry" />
        </mxCell>
        <mxCell id="9L8n2mt8I-r6MpE7Kl4a-46" value="&lt;font style=&quot;font-size: 10px&quot;&gt;contact&lt;/font&gt;" style="ellipse;whiteSpace=wrap;html=1;align=center;fillColor=#e1d5e7;strokeColor=#9673a6;" vertex="1" parent="1">
          <mxGeometry x="200" y="250" width="85" height="25" as="geometry" />
        </mxCell>
        <mxCell id="9L8n2mt8I-r6MpE7Kl4a-47" value="&lt;font style=&quot;font-size: 10px&quot;&gt;address&lt;/font&gt;" style="ellipse;whiteSpace=wrap;html=1;align=center;fillColor=#e1d5e7;strokeColor=#9673a6;" vertex="1" parent="1">
          <mxGeometry x="200" y="280" width="85" height="25" as="geometry" />
        </mxCell>
        <mxCell id="9L8n2mt8I-r6MpE7Kl4a-48" value="&lt;font style=&quot;font-size: 10px&quot;&gt;username&lt;/font&gt;" style="ellipse;whiteSpace=wrap;html=1;align=center;fillColor=#e1d5e7;strokeColor=#9673a6;" vertex="1" parent="1">
          <mxGeometry x="200" y="310" width="85" height="25" as="geometry" />
        </mxCell>
      </root>
    </mxGraphModel>
  </diagram>
</mxfile>
